<svg width="64" height="64" viewBox="0 0 64 64" fill="none" xmlns="http://www.w3.org/2000/svg">
<g clip-path="url(#clip0)">
<rect width="64" height="64" fill="#FBFBFB"/>
<path d="M0 30.6667C0 16.2103 0 8.98205 4.49103 4.49103C8.98205 0 16.2103 0 30.6667 0H33.3333C47.7897 0 55.018 0 59.5089 4.49103C64 8.98205 64 16.2103 64 30.6667V33.3333C64 47.7897 64 55.018 59.5089 59.5089C55.018 64 47.7897 64 33.3333 64H30.6667C16.2103 64 8.98205 64 4.49103 59.5089C0 55.018 0 47.7897 0 33.3333V30.6667Z" fill="white"/>
</g>
<path d="M41.7656 32.3529L33.6406 23.4569C32.5729 22.2864 32.5729 20.8038 33.6406 20.2055L36.5312 18.5928L25.3073 14.3529C25.3073 21.1159 21.2448 27.1766 12 32.3529L25.3073 39.8182V35.1361C25.3073 33.6014 26.9739 32.3529 28.901 32.3529H41.7656Z" fill="#00AEEF"/>
<path d="M41.7656 22.3904V32.3268L47.1042 26.4742C47.5469 25.98 48.2239 26.1621 48.6406 26.8124L49.7864 28.6852V23.5609C47.3125 22.6245 44.3958 19.9193 41.7656 15.6534L36.5573 18.5667H36.5312H36.5573L39.9948 19.8673C40.9844 20.2575 41.7656 21.376 41.7656 22.3904Z" fill="#00AEEF"/>
<path d="M41.7656 32.327V20.5698L36.5573 18.5929H36.5312L31.6875 21.2981L41.7656 32.327Z" fill="#2E3087"/>
<path d="M51.9999 32.3267L49.7603 28.6851V30.9481C49.7603 31.7024 49.3437 32.3007 48.7968 32.3007H41.7395V32.3267L47.078 38.1793C47.5207 38.6735 47.5207 39.6099 47.078 40.3122L45.6457 42.6272L49.7343 41.0926C49.7603 37.8151 50.6197 34.5637 51.9999 32.3267Z" fill="#00AEEF"/>
<path d="M41.7656 32.3269L49.7604 32.431V28.7113L47.8854 25.642L41.7656 32.3269Z" fill="#2E3087"/>
<path d="M41.7654 42.2891V32.3527L33.6405 41.2226C32.5727 42.3931 30.7238 42.8353 29.4998 42.159L25.3071 39.818V50.3526C33.1717 47.3873 38.6144 47.2573 41.7394 49.0261L45.6456 42.6792V42.6532L43.3279 43.5376C42.4946 43.8498 41.7654 43.3035 41.7654 42.2891Z" fill="#00AEEF"/>
<path d="M41.7655 32.3527L41.7134 44.1619L45.6717 42.6532L47.8852 39.0376L41.7655 32.3527Z" fill="#2E3087"/>
<path d="M41.7654 32.3527H25.3071V39.818L31.6873 43.3816L41.7654 32.3527Z" fill="#2E3087"/>
<path d="M25.3071 32.353C39.604 31.1305 40.6196 30.09 41.7654 20.5698C42.8071 30.2721 43.6404 31.2866 49.7863 32.4311C43.6404 33.5236 42.7811 34.486 41.7394 44.1883C40.5936 34.6421 39.604 33.6536 25.3071 32.353Z" fill="white"/>
<defs>
<clipPath id="clip0">
<rect width="64" height="64" fill="white"/>
</clipPath>
</defs>
</svg>
