<svg width="20" height="20" viewBox="0 0 20 20" fill="none" xmlns="http://www.w3.org/2000/svg">
<g clip-path="url(#clip0)">
<path d="M8.22817 9.39985C8.64321 9.19109 8.95698 8.95857 9.172 8.7073C9.55453 8.25476 9.7433 7.65471 9.7433 6.9109C9.7433 6.18709 9.55453 5.56829 9.177 5.0495C8.54695 4.20443 7.48061 3.77189 5.97299 3.74939H0V15.9416H5.56921C6.19676 15.9416 6.77806 15.8879 7.3156 15.7779C7.85314 15.6666 8.31818 15.4629 8.71196 15.1653C9.06199 14.9066 9.35452 14.5853 9.58704 14.2065C9.95457 13.634 10.1383 12.9851 10.1383 12.2626C10.1383 11.5625 9.97707 10.9662 9.65704 10.4762C9.33327 9.98615 8.85823 9.62737 8.22817 9.39985ZM2.46395 5.86706H5.15417C5.74547 5.86706 6.23301 5.93082 6.61554 6.05708C7.05808 6.24084 7.27935 6.61462 7.27935 7.18467C7.27935 7.69596 7.11058 8.05349 6.77681 8.25476C6.44053 8.45603 6.00424 8.55728 5.4692 8.55728H2.46395V5.86706ZM6.71805 13.6114C6.42053 13.7552 6.00174 13.8265 5.46545 13.8265H2.46395V10.575H5.5067C6.03675 10.5787 6.44928 10.6487 6.7443 10.78C7.26935 11.0175 7.53062 11.4525 7.53062 12.0888C7.53062 12.8389 7.2606 13.3439 6.71805 13.6114Z" fill="#333333"/>
<path d="M18.0777 4.31824H12.7811V5.83586H18.0777V4.31824Z" fill="#333333"/>
<path d="M19.9178 10.3073C19.8078 9.60102 19.5653 8.97971 19.1878 8.44342C18.774 7.83587 18.2489 7.39083 17.6101 7.10956C16.9738 6.82703 16.2575 6.68577 15.46 6.68702C14.1211 6.68702 13.0335 7.10581 12.1922 7.93713C11.3534 8.77095 10.9333 9.9698 10.9333 11.5324C10.9333 13.1988 11.3971 14.4027 12.3297 15.1415C13.2585 15.8815 14.3311 16.2503 15.5487 16.2503C17.0226 16.2503 18.1689 15.8115 18.9878 14.9365C19.5116 14.3839 19.8078 13.8401 19.8728 13.3063H17.4326C17.2914 13.5701 17.1276 13.7764 16.9401 13.9264C16.6001 14.2014 16.1575 14.3389 15.615 14.3389C15.0987 14.3389 14.6612 14.2252 14.2961 13.9989C13.6936 13.6364 13.3785 13.0013 13.3385 12.0975H19.9978C20.0078 11.3187 19.9828 10.7199 19.9178 10.3073ZM13.3986 10.5411C13.4861 9.95479 13.6986 9.48976 14.0361 9.14598C14.3736 8.80345 14.8512 8.63093 15.4625 8.62968C16.0263 8.62968 16.4976 8.79095 16.8813 9.11472C17.2601 9.441 17.4739 9.91479 17.5176 10.5411H13.3986Z" fill="#333333"/>
</g>
<defs>
<clipPath id="clip0">
<rect width="20" height="20" fill="white"/>
</clipPath>
</defs>
</svg>
