<svg width="64" height="64" viewBox="0 0 64 64" fill="none" xmlns="http://www.w3.org/2000/svg">
<g clip-path="url(#clip0)">
<path d="M0 30.6667C0 16.2103 0 8.98205 4.49103 4.49103C8.98205 0 16.2103 0 30.6667 0H33.3333C47.7897 0 55.018 0 59.5089 4.49103C64 8.98205 64 16.2103 64 30.6667V33.3333C64 47.7897 64 55.018 59.5089 59.5089C55.018 64 47.7897 64 33.3333 64H30.6667C16.2103 64 8.98205 64 4.49103 59.5089C0 55.018 0 47.7897 0 33.3333V30.6667Z" fill="white"/>
</g>
<path d="M13.5542 32.9059C13.1377 32.4893 13.1377 31.8139 13.5542 31.3974L18.0797 26.8719C18.4963 26.4553 19.1717 26.4553 19.5882 26.8719L24.1137 31.3974C24.5303 31.8139 24.5303 32.4893 24.1137 32.9059L19.5882 37.4313C19.1717 37.8479 18.4963 37.8479 18.0797 37.4313L13.5542 32.9059Z" fill="#333333"/>
<path d="M22.6051 41.9568C22.1886 41.5403 22.1886 40.8649 22.6051 40.4483L45.2326 17.8209C45.6491 17.4043 46.3245 17.4043 46.7411 17.8209L51.2665 22.3464C51.6831 22.7629 51.6831 23.4383 51.2665 23.8549L28.6391 46.4823C28.2226 46.8989 27.5472 46.8989 27.1306 46.4823L22.6051 41.9568Z" fill="#333333"/>
<defs>
<clipPath id="clip0">
<rect width="64" height="64" fill="white"/>
</clipPath>
</defs>
</svg>
