<svg width="162" height="40" viewBox="0 0 162 40" fill="none" xmlns="http://www.w3.org/2000/svg">
<rect width="162" height="40" fill="white"/>
<path d="M16 28.52H18.904V23.696L20.848 21.392L25.768 28.52H29.368L22.768 19.088L29.176 11.48H25.48L18.952 19.64H18.904V11.48H16V28.52Z" fill="#333333"/>
<path d="M39.7074 28.712C44.6274 28.712 48.2994 25.184 48.2994 20C48.2994 14.792 44.6274 11.288 39.7074 11.288C34.5954 11.288 31.0914 14.984 31.0914 20C31.0914 25.016 34.5954 28.712 39.7074 28.712ZM39.7074 26C36.3714 26 34.0914 23.336 34.0914 20C34.0914 16.664 36.3714 14 39.7074 14C42.8514 14 45.2754 16.496 45.2754 20C45.2754 23.48 42.8514 26 39.7074 26Z" fill="#333333"/>
<path d="M52.7109 28.52H55.6149V16.496H55.6629L63.8949 28.52H66.8469V11.48H63.9669V23.72H63.9189L55.5909 11.48H52.7109V28.52Z" fill="#333333"/>
<path d="M79.8636 28.712C84.7836 28.712 88.4556 25.184 88.4556 20C88.4556 14.792 84.7836 11.288 79.8636 11.288C74.7516 11.288 71.2476 14.984 71.2476 20C71.2476 25.016 74.7516 28.712 79.8636 28.712ZM79.8636 26C76.5276 26 74.2476 23.336 74.2476 20C74.2476 16.664 76.5276 14 79.8636 14C83.0076 14 85.4316 16.496 85.4316 20C85.4316 23.48 83.0076 26 79.8636 26Z" fill="#333333"/>
<path d="M120.02 28.712C124.94 28.712 128.612 25.184 128.612 20C128.612 14.792 124.94 11.288 120.02 11.288C114.908 11.288 111.404 14.984 111.404 20C111.404 25.016 114.908 28.712 120.02 28.712ZM120.02 26C116.684 26 114.404 23.336 114.404 20C114.404 16.664 116.684 14 120.02 14C123.164 14 125.588 16.496 125.588 20C125.588 23.48 123.164 26 120.02 26Z" fill="#333333"/>
<path d="M136.82 28.52H139.388L145.748 11.48H142.652L138.14 24.344H138.116L133.58 11.48H130.46L136.82 28.52Z" fill="#333333"/>
<path d="M107.008 28.52H104.079V16.496H104.03L95.726 28.52H92.7481V11.48H95.6534V23.72H95.7018L104.103 11.48H107.008V28.52Z" fill="#333333"/>
</svg>
