<svg width="64" height="64" viewBox="0 0 64 64" fill="none" xmlns="http://www.w3.org/2000/svg">
<g clip-path="url(#clip0)">
<path fill-rule="evenodd" clip-rule="evenodd" d="M4.49103 4.49103C0 8.98205 0 16.2103 0 30.6667V33.3333C0 47.7897 0 55.018 4.49103 59.5089C8.98205 64 16.2103 64 30.6667 64H33.3333C47.7897 64 55.018 64 59.5089 59.5089C64 55.018 64 47.7897 64 33.3333V30.6667C64 16.2103 64 8.98205 59.5089 4.49103C55.018 0 47.7897 0 33.3333 0H30.6667C16.2103 0 8.98205 0 4.49103 4.49103ZM12.6668 20H17.3345C18.5275 20 18.9763 20.522 19.4236 21.8143C21.7065 28.4628 25.5557 34.2732 27.1381 34.2732C27.7315 34.2732 28.0037 34 28.0037 32.4933V25.6211C27.8965 23.6649 27.2131 22.8189 26.7068 22.1924C26.3941 21.8053 26.1491 21.5021 26.1491 21.0727C26.1491 20.5507 26.5952 20 27.3368 20H34.6719C35.6611 20 36.0055 20.5288 36.0055 21.7155V30.9607C36.0055 31.9493 36.4349 32.2955 36.7316 32.2955C37.3251 32.2955 37.8196 31.9493 38.9076 30.8617C42.2703 27.1043 44.6439 21.3197 44.6439 21.3197C44.9407 20.6277 45.4879 20 46.6747 20H51.3424C52.754 20 53.0507 20.7265 52.754 21.7155C52.1605 24.4345 46.4736 32.4439 46.4736 32.4439C45.9791 33.2348 45.7813 33.6304 46.4736 34.5203C46.7175 34.8616 47.2376 35.3711 47.8329 35.954C48.4449 36.5533 49.1364 37.2305 49.688 37.8823C51.6931 40.1373 53.2041 42.0399 53.6251 43.3511C54.0097 44.6667 53.3429 45.3333 52.0092 45.3333H47.3415C46.0912 45.3333 45.4617 44.6332 44.1013 43.1203C43.5247 42.4789 42.8168 41.6916 41.8747 40.7497C39.1053 38.08 37.9185 37.7339 37.2261 37.7339C36.2867 37.7339 36.0056 38 36.0056 39.3333V43.5184C36.0056 44.6667 35.6385 45.3333 32.6715 45.3333C27.7263 45.3333 22.2919 42.3317 18.4347 36.7945C12.6489 28.6864 11.0664 22.5559 11.0664 21.3197C11.0664 20.6277 11.3331 20 12.6668 20Z" fill="white"/>
</g>
<defs>
<clipPath id="clip0">
<rect width="64" height="64" fill="white"/>
</clipPath>
</defs>
</svg>
